<?xml version="1.0" encoding="UTF-8" standalone="no"?>
<!-- Created with Inkscape (http://www.inkscape.org/) -->

<svg
   version="1.1"
   id="svg1"
   width="1722.184"
   height="1722.1639"
   viewBox="0 0 1722.184 1722.1639"
   sodipodi:docname="shipyard.svg"
   inkscape:version="1.4.2 (f4327f4, 2025-05-13)"
   xml:space="preserve"
   xmlns:inkscape="http://www.inkscape.org/namespaces/inkscape"
   xmlns:sodipodi="http://sodipodi.sourceforge.net/DTD/sodipodi-0.dtd"
   xmlns="http://www.w3.org/2000/svg"
   xmlns:svg="http://www.w3.org/2000/svg"><defs
     id="defs1"><inkscape:path-effect
       effect="mirror_symmetry"
       start_point="1000,0"
       end_point="1000,2000"
       center_point="1000,1000"
       id="path-effect22"
       is_visible="true"
       lpeversion="1.2"
       lpesatellites=""
       mode="vertical"
       discard_orig_path="false"
       fuse_paths="false"
       oposite_fuse="false"
       split_items="false"
       split_open="false"
       link_styles="false" /><inkscape:path-effect
       effect="mirror_symmetry"
       start_point="1000,-230.37742"
       end_point="1000,1769.6226"
       center_point="1000,769.62258"
       id="path-effect5"
       is_visible="true"
       lpeversion="1.2"
       lpesatellites=""
       mode="vertical"
       discard_orig_path="false"
       fuse_paths="false"
       oposite_fuse="false"
       split_items="false"
       split_open="false"
       link_styles="false" /><inkscape:path-effect
       effect="mirror_symmetry"
       start_point="1000,0"
       end_point="1000,2000"
       center_point="1000,1000"
       id="path-effect21"
       is_visible="true"
       lpeversion="1.2"
       lpesatellites=""
       mode="vertical"
       discard_orig_path="false"
       fuse_paths="false"
       oposite_fuse="false"
       split_items="false"
       split_open="false"
       link_styles="false" /><inkscape:path-effect
       effect="mirror_symmetry"
       start_point="1000,1095.1807"
       end_point="1000,1882"
       center_point="1000,1488.5904"
       id="path-effect20"
       is_visible="true"
       lpeversion="1.2"
       lpesatellites=""
       mode="vertical"
       discard_orig_path="false"
       fuse_paths="false"
       oposite_fuse="false"
       split_items="false"
       split_open="false"
       link_styles="false" /><inkscape:path-effect
       effect="mirror_symmetry"
       start_point="-383.67803,623.35022"
       end_point="-383.67803,-876.64981"
       center_point="-383.67803,-126.6498"
       id="path-effect19"
       is_visible="true"
       lpeversion="1.2"
       lpesatellites=""
       mode="vertical"
       discard_orig_path="false"
       fuse_paths="false"
       oposite_fuse="false"
       split_items="false"
       split_open="false"
       link_styles="false" /><inkscape:path-effect
       effect="mirror_symmetry"
       start_point="-383.67803,623.35022"
       end_point="-383.67803,-876.64981"
       center_point="-383.67803,-126.6498"
       id="path-effect18"
       is_visible="false"
       lpeversion="1.2"
       lpesatellites=""
       mode="vertical"
       discard_orig_path="false"
       fuse_paths="false"
       oposite_fuse="false"
       split_items="false"
       split_open="false"
       link_styles="false" /><inkscape:path-effect
       effect="mirror_symmetry"
       start_point="-8396.6778,-329.3584"
       end_point="300.4746,-329.3584"
       center_point="-4048.1016,-329.3584"
       id="path-effect17"
       is_visible="true"
       lpeversion="1.2"
       lpesatellites=""
       mode="free"
       discard_orig_path="false"
       fuse_paths="false"
       oposite_fuse="false"
       split_items="false"
       split_open="false"
       link_styles="false" /><clipPath
       clipPathUnits="userSpaceOnUse"
       id="clipPath2"><path
         d="M 0,1500 H 1500 V 0 H 0 Z"
         transform="translate(-807.35942,-400.21681)"
         id="path2" /></clipPath><clipPath
       clipPathUnits="userSpaceOnUse"
       id="clipPath4"><path
         d="M 0,1500 H 1500 V 0 H 0 Z"
         transform="translate(-1199.5254,-1079.3584)"
         id="path4" /></clipPath><clipPath
       clipPathUnits="userSpaceOnUse"
       id="clipPath6"><path
         d="M 0,1500 H 1500 V 0 H 0 Z"
         transform="translate(-807.35942,-1172.1235)"
         id="path6" /></clipPath><clipPath
       clipPathUnits="userSpaceOnUse"
       id="clipPath8"><path
         d="M 0,1500 H 1500 V 0 H 0 Z"
         transform="translate(-1120.8027,-983.87012)"
         id="path8" /></clipPath><clipPath
       clipPathUnits="userSpaceOnUse"
       id="clipPath10"><path
         d="M 0,1500 H 1500 V 0 H 0 Z"
         transform="translate(-1239.6954,-852.97752)"
         id="path10" /></clipPath><clipPath
       clipPathUnits="userSpaceOnUse"
       id="clipPath12"><path
         d="M 0,1500 H 1500 V 0 H 0 Z"
         id="path12" /></clipPath><clipPath
       clipPathUnits="userSpaceOnUse"
       id="clipPath14"><path
         d="M 0,1500 H 1500 V 0 H 0 Z"
         id="path14" /></clipPath><clipPath
       clipPathUnits="userSpaceOnUse"
       id="clipPath16"><path
         d="M 0,1500 H 1500 V 0 H 0 Z"
         id="path16" /></clipPath><clipPath
       clipPathUnits="userSpaceOnUse"
       id="clipPath4-4"><path
         d="M 0,1500 H 1500 V 0 H 0 Z"
         transform="translate(-1199.5254,-1079.3584)"
         id="path4-8" /></clipPath><clipPath
       clipPathUnits="userSpaceOnUse"
       id="clipPath10-8"><path
         d="M 0,1500 H 1500 V 0 H 0 Z"
         transform="translate(-1239.6954,-852.97752)"
         id="path10-2" /></clipPath><clipPath
       clipPathUnits="userSpaceOnUse"
       id="clipPath2-4"><path
         d="M 0,1500 H 1500 V 0 H 0 Z"
         transform="translate(-807.35942,-400.21681)"
         id="path2-5" /></clipPath><clipPath
       clipPathUnits="userSpaceOnUse"
       id="clipPath4-7"><path
         d="M 0,1500 H 1500 V 0 H 0 Z m -817.07205,0 H -2317.0721 V 0 h 1500.00005 z"
         transform="translate(-1199.5254,-1079.3584)"
         id="path4-6" /></clipPath><inkscape:path-effect
       effect="mirror_symmetry"
       start_point="-408.53603,518.49306"
       end_point="-408.53603,-804.02569"
       center_point="-408.53603,-142.76632"
       id="path-effect18-1"
       is_visible="true"
       lpeversion="1.2"
       lpesatellites=""
       mode="vertical"
       discard_orig_path="false"
       fuse_paths="false"
       oposite_fuse="false"
       split_items="false"
       split_open="false"
       link_styles="false" /><clipPath
       clipPathUnits="userSpaceOnUse"
       id="clipPath2-48"><path
         d="M 0,1500 H 1500 V 0 H 0 Z"
         transform="translate(-750.00002,-218.00003)"
         id="path2-8" /></clipPath><clipPath
       clipPathUnits="userSpaceOnUse"
       id="clipPath4-2"><path
         d="M 0,1500 H 1500 V 0 H 0 Z"
         transform="translate(-1127.2998,-1125)"
         id="path4-4" /></clipPath><clipPath
       clipPathUnits="userSpaceOnUse"
       id="clipPath6-5"><path
         d="M 0,1500 H 1500 V 0 H 0 Z"
         transform="translate(-289.20021,-1016)"
         id="path6-5" /></clipPath><clipPath
       clipPathUnits="userSpaceOnUse"
       id="clipPath8-1"><path
         d="M 0,1500 H 1500 V 0 H 0 Z"
         transform="translate(-750.00002,-1149)"
         id="path8-7" /></clipPath><clipPath
       clipPathUnits="userSpaceOnUse"
       id="clipPath10-1"><path
         d="M 0,1500 H 1500 V 0 H 0 Z"
         transform="translate(-1099.2003,-556.79979)"
         id="path10-1" /></clipPath><clipPath
       clipPathUnits="userSpaceOnUse"
       id="clipPath12-5"><path
         d="M 0,1500 H 1500 V 0 H 0 Z"
         transform="translate(-407.70021,-544.90044)"
         id="path12-2" /></clipPath></defs><sodipodi:namedview
     id="namedview1"
     pagecolor="#ffffff"
     bordercolor="#000000"
     borderopacity="0.25"
     inkscape:showpageshadow="2"
     inkscape:pageopacity="0.0"
     inkscape:pagecheckerboard="0"
     inkscape:deskcolor="#d1d1d1"
     showguides="false"
     inkscape:zoom="0.22627417"
     inkscape:cx="556.84659"
     inkscape:cy="1160.0971"
     inkscape:window-width="1920"
     inkscape:window-height="1129"
     inkscape:window-x="-3"
     inkscape:window-y="1072"
     inkscape:window-maximized="1"
     inkscape:current-layer="layer-MC1"><inkscape:page
       x="0"
       y="0"
       inkscape:label="1"
       id="page1"
       width="1722.184"
       height="1722.1639"
       margin="0 186.50667 0 268.10666"
       bleed="0" /><sodipodi:guide
       position="614.93767,1204.8989"
       orientation="0,-1"
       id="guide16"
       inkscape:locked="false" /><sodipodi:guide
       position="1187.8451,1020.7469"
       orientation="-1,0"
       id="guide17"
       inkscape:locked="false"
       inkscape:label=""
       inkscape:color="rgb(0,134,229)" /></sodipodi:namedview><g
     id="layer-MC1"
     inkscape:groupmode="layer"
     inkscape:label="Warstwa 1"
     transform="translate(187.84518,-64.583046)"><path
       id="path19"
       style="fill:#000000;stroke-width:2.40902"
       d="m -112.89013,1550.5116 c 178.717135,184.6543 520.68958,236.042 841.81731,236.2354 -57.55982,-29.5064 -114.90263,-80.4246 -156.71357,-123.6245 220.34345,-61.7703 344.33755,-153.0757 344.33755,-153.0757 52.2621,53.9983 177.31954,109.4273 276.43424,128.3252 -64.6473,62.5688 -226.78254,136.8535 -307.16564,144.6358 252.04694,-11.8234 469.99364,-48.6411 554.10674,-65.99 20.0875,-83.5015 64.0057,-300.129 84.0569,-551.655 -10.4041,80.0859 -89.9461,239.7077 -154.5934,302.2765 -15.6497,-99.6792 -66.9638,-226.4807 -119.2257,-280.4789 0,0 95.3074,-120.9451 164.2432,-339.15292 41.8109,43.19991 90.8285,102.17556 118.4387,160.66862 10.2978,-320.96258 -29.8906,-664.43137 -208.6077,-849.08562 180.017,543.784 -175.8343,941.06512 -326.25674,1100.80082 -164.5648,145.1237 -573.25918,487.8063 -1110.87189,290.1203 z" /><path
       id="rect6"
       style="fill:#000000;stroke-width:0.8038"
       d="m 382.97449,831.65071 10e-4,9.7e-4 211.07825,-204.29154 -10e-4,-9.7e-4 z M 594.0541,627.36057 649.92681,900.77383 382.97585,831.65211 554.27104,1008.6379 c 0,0 210.69942,-73.74445 335.20712,-76.03907 z m 116.14684,542.38733 300.43496,310.4154 211.0781,-204.2914 -194.3377,-200.7939 c -64.54224,15.5724 -214.44234,53.6407 -317.17536,94.6699 z" /><path
       id="rect15"
       style="fill:#000000;stroke-width:0.897001"
       d="m 240.01628,640.84857 c -1.20225,1.1636 -2.39451,2.33265 -3.57534,3.5066 L 397.48123,691.18372 748.90546,351.05871 647.59097,246.37848 Z M 144.19852,806.1369 c -55.036225,229.1281 148.50095,482.5498 531.47655,327.9381 361.05753,-145.76293 420.36183,-84.4246 424.78383,-78.896 -3.8346,-5.5009 -109.47284,-150.362 -506.23284,-5.2588 C 372.30863,1131.08 229.18822,973.37524 285.2441,827.41709 239.60524,833.7531 187.45574,825.94778 144.19852,806.1369 Z" /><path
       id="path17"
       style="fill:#000000;stroke-width:0.536534"
       d="M -4.0429351,877.06066 97.271545,981.74088 v 0 C 68.519835,921.23167 68.401195,853.76744 87.388725,788.56877 Z"
       sodipodi:nodetypes="ccccc" /></g><g
     id="layer-MC0-1"
     inkscape:groupmode="layer"
     inkscape:label="Warstwa 1"
     transform="matrix(1.6274902,0,0,1.6274902,2831.6102,-64.583047)"><path
       id="path1"
       d="m 0,0 v 0 l -362.6,628 c -8.1,-30.6 -12.4,-62.8 -12.4,-96 0,-65.9 17,-127.9 46.9,-181.7 L 0,-218 136,17.6 C 92.6,6.1 47,0 0,0"
       style="fill:#000000;fill-opacity:1;fill-rule:nonzero;stroke:none"
       transform="matrix(0.26692839,-0.25834595,-0.25834595,-0.26692839,-1325.6522,449.58161)"
       clip-path="url(#clipPath2-48)" /><path
       id="path3"
       clip-path="url(#clipPath4-2)"
       style="fill:#000000;fill-opacity:1;fill-rule:nonzero;stroke:none"
       d="M 0.00146776,-3.6584363e-4 C 32.301468,-32.500366 60.399425,-69.100639 83.499425,-109.00064 H 83.399276 L -142.1221,-499.59249 H -16.309806 L 272.19848,-3.6584363e-4 Z"
       transform="matrix(0.26692839,-0.25834595,-0.25834595,-0.26692839,-1459.26,110.00371)" /><path
       id="path5"
       d="M 0,0 V 0 H 725.1 C 657.3,67.4 563.899,109 460.8,109 h -649.5 l 136,-235.5 C -40.6,-81.7 -22.7,-39.3 0,0"
       style="fill:#000000;fill-opacity:1;fill-rule:nonzero;stroke:none"
       transform="matrix(0.26692839,-0.25834595,-0.25834595,-0.26692839,-1654.8129,355.61856)"
       clip-path="url(#clipPath6-5)" /><path
       id="path7"
       d="m 0,0 v 0 c 165.8,0 308,-101.2 368.3,-245.2 l 50.9,88.2 0.7,0.4 13.3,23.1 C 343.8,12 183.3,109 0,109 -118.7,109 -228,68.3 -314.5,0 Z"
       style="fill:#000000;fill-opacity:1;fill-rule:nonzero;stroke:none"
       transform="matrix(0.26692839,-0.25834595,-0.25834595,-0.26692839,-1566.1722,201.07128)"
       clip-path="url(#clipPath8-1)" /><path
       id="path9"
       clip-path="url(#clipPath10-1)"
       style="fill:#000000;fill-opacity:1;fill-rule:nonzero;stroke:none"
       d="M 153.59994,266.10047 39.601937,68.607743 H 143.40741 c 10.05334,39.867257 15.39379,81.605997 15.39379,124.591127 0,24.7 -1.80126,49.1016 -5.20126,72.9016 z m -551.91484,-471.79608 49.11473,-85.10357 13.80111,-23.89994 c 113.46272,3.06209 217.64311,43.31502 300.797461,109.00351 H -340.0382 c -3.04553,-0.0686 -6.09997,-0.10338 -9.16197,-0.10338 -3.06614,0 -6.12169,0.0348 -9.16842,0.10338 z"
       transform="matrix(0.26692839,-0.25834595,-0.25834595,-0.26692839,-1319.9683,268.93188)" /><path
       id="path11"
       d="m 0,0 c -36,59.899 -56.7,130.1 -56.7,205.1 0,91 30.5,174.9 81.7,242 h -101.9 -27.6 c -39,-71.9 -61.2,-154.4 -61.2,-242 0,-214.1 132.4,-397.201 319.8,-472 z"
       style="fill:#000000;fill-opacity:1;fill-rule:nonzero;stroke:none"
       transform="matrix(0.26692839,-0.25834595,-0.25834595,-0.26692839,-1501.4751,450.75437)"
       clip-path="url(#clipPath12-5)" /></g></svg>
