<?xml version="1.0" encoding="UTF-8" standalone="no"?>
<!-- Created with Inkscape (http://www.inkscape.org/) -->

<svg
   version="1.1"
   id="svg1"
   width="5843.2051"
   height="1730.6155"
   viewBox="0 0 5843.2051 1730.6155"
   sodipodi:docname="full_banner.svg"
   inkscape:version="1.4.2 (f4327f4, 2025-05-13)"
   xml:space="preserve"
   xmlns:inkscape="http://www.inkscape.org/namespaces/inkscape"
   xmlns:sodipodi="http://sodipodi.sourceforge.net/DTD/sodipodi-0.dtd"
   xmlns="http://www.w3.org/2000/svg"
   xmlns:svg="http://www.w3.org/2000/svg"><defs
     id="defs1"><rect
       x="2085.9651"
       y="254.66766"
       width="2594.198"
       height="670.10944"
       id="rect1" /><inkscape:path-effect
       effect="mirror_symmetry"
       start_point="1000,0"
       end_point="1000,2000"
       center_point="1000,1000"
       id="path-effect22"
       is_visible="true"
       lpeversion="1.2"
       lpesatellites=""
       mode="vertical"
       discard_orig_path="false"
       fuse_paths="false"
       oposite_fuse="false"
       split_items="false"
       split_open="false"
       link_styles="false" /><inkscape:path-effect
       effect="mirror_symmetry"
       start_point="1000,-230.37742"
       end_point="1000,1769.6226"
       center_point="1000,769.62258"
       id="path-effect5"
       is_visible="true"
       lpeversion="1.2"
       lpesatellites=""
       mode="vertical"
       discard_orig_path="false"
       fuse_paths="false"
       oposite_fuse="false"
       split_items="false"
       split_open="false"
       link_styles="false" /><inkscape:path-effect
       effect="mirror_symmetry"
       start_point="1000,0"
       end_point="1000,2000"
       center_point="1000,1000"
       id="path-effect21"
       is_visible="true"
       lpeversion="1.2"
       lpesatellites=""
       mode="vertical"
       discard_orig_path="false"
       fuse_paths="false"
       oposite_fuse="false"
       split_items="false"
       split_open="false"
       link_styles="false" /><inkscape:path-effect
       effect="mirror_symmetry"
       start_point="1000,1095.1807"
       end_point="1000,1882"
       center_point="1000,1488.5904"
       id="path-effect20"
       is_visible="true"
       lpeversion="1.2"
       lpesatellites=""
       mode="vertical"
       discard_orig_path="false"
       fuse_paths="false"
       oposite_fuse="false"
       split_items="false"
       split_open="false"
       link_styles="false" /><inkscape:path-effect
       effect="mirror_symmetry"
       start_point="-383.67803,623.35022"
       end_point="-383.67803,-876.64981"
       center_point="-383.67803,-126.6498"
       id="path-effect19"
       is_visible="true"
       lpeversion="1.2"
       lpesatellites=""
       mode="vertical"
       discard_orig_path="false"
       fuse_paths="false"
       oposite_fuse="false"
       split_items="false"
       split_open="false"
       link_styles="false" /><inkscape:path-effect
       effect="mirror_symmetry"
       start_point="-383.67803,623.35022"
       end_point="-383.67803,-876.64981"
       center_point="-383.67803,-126.6498"
       id="path-effect18"
       is_visible="false"
       lpeversion="1.2"
       lpesatellites=""
       mode="vertical"
       discard_orig_path="false"
       fuse_paths="false"
       oposite_fuse="false"
       split_items="false"
       split_open="false"
       link_styles="false" /><inkscape:path-effect
       effect="mirror_symmetry"
       start_point="-8396.6778,-329.3584"
       end_point="300.4746,-329.3584"
       center_point="-4048.1016,-329.3584"
       id="path-effect17"
       is_visible="true"
       lpeversion="1.2"
       lpesatellites=""
       mode="free"
       discard_orig_path="false"
       fuse_paths="false"
       oposite_fuse="false"
       split_items="false"
       split_open="false"
       link_styles="false" /><clipPath
       clipPathUnits="userSpaceOnUse"
       id="clipPath2"><path
         d="M 0,1500 H 1500 V 0 H 0 Z"
         transform="translate(-807.35942,-400.21681)"
         id="path2" /></clipPath><clipPath
       clipPathUnits="userSpaceOnUse"
       id="clipPath4"><path
         d="M 0,1500 H 1500 V 0 H 0 Z"
         transform="translate(-1199.5254,-1079.3584)"
         id="path4" /></clipPath><clipPath
       clipPathUnits="userSpaceOnUse"
       id="clipPath6"><path
         d="M 0,1500 H 1500 V 0 H 0 Z"
         transform="translate(-807.35942,-1172.1235)"
         id="path6" /></clipPath><clipPath
       clipPathUnits="userSpaceOnUse"
       id="clipPath8"><path
         d="M 0,1500 H 1500 V 0 H 0 Z"
         transform="translate(-1120.8027,-983.87012)"
         id="path8" /></clipPath><clipPath
       clipPathUnits="userSpaceOnUse"
       id="clipPath10"><path
         d="M 0,1500 H 1500 V 0 H 0 Z"
         transform="translate(-1239.6954,-852.97752)"
         id="path10" /></clipPath><clipPath
       clipPathUnits="userSpaceOnUse"
       id="clipPath12"><path
         d="M 0,1500 H 1500 V 0 H 0 Z"
         id="path12" /></clipPath><clipPath
       clipPathUnits="userSpaceOnUse"
       id="clipPath14"><path
         d="M 0,1500 H 1500 V 0 H 0 Z"
         id="path14" /></clipPath><clipPath
       clipPathUnits="userSpaceOnUse"
       id="clipPath16"><path
         d="M 0,1500 H 1500 V 0 H 0 Z"
         id="path16" /></clipPath><clipPath
       clipPathUnits="userSpaceOnUse"
       id="clipPath4-4"><path
         d="M 0,1500 H 1500 V 0 H 0 Z"
         transform="translate(-1199.5254,-1079.3584)"
         id="path4-8" /></clipPath><clipPath
       clipPathUnits="userSpaceOnUse"
       id="clipPath10-8"><path
         d="M 0,1500 H 1500 V 0 H 0 Z"
         transform="translate(-1239.6954,-852.97752)"
         id="path10-2" /></clipPath><clipPath
       clipPathUnits="userSpaceOnUse"
       id="clipPath2-4"><path
         d="M 0,1500 H 1500 V 0 H 0 Z"
         transform="translate(-807.35942,-400.21681)"
         id="path2-5" /></clipPath><clipPath
       clipPathUnits="userSpaceOnUse"
       id="clipPath4-7"><path
         d="M 0,1500 H 1500 V 0 H 0 Z m -817.07205,0 H -2317.0721 V 0 h 1500.00005 z"
         transform="translate(-1199.5254,-1079.3584)"
         id="path4-6" /></clipPath><inkscape:path-effect
       effect="mirror_symmetry"
       start_point="-408.53603,518.49306"
       end_point="-408.53603,-804.02569"
       center_point="-408.53603,-142.76632"
       id="path-effect18-1"
       is_visible="true"
       lpeversion="1.2"
       lpesatellites=""
       mode="vertical"
       discard_orig_path="false"
       fuse_paths="false"
       oposite_fuse="false"
       split_items="false"
       split_open="false"
       link_styles="false" /><clipPath
       clipPathUnits="userSpaceOnUse"
       id="clipPath2-48"><path
         d="M 0,1500 H 1500 V 0 H 0 Z"
         transform="translate(-750.00002,-218.00003)"
         id="path2-8" /></clipPath><clipPath
       clipPathUnits="userSpaceOnUse"
       id="clipPath4-2"><path
         d="M 0,1500 H 1500 V 0 H 0 Z"
         transform="translate(-1127.2998,-1125)"
         id="path4-4" /></clipPath><clipPath
       clipPathUnits="userSpaceOnUse"
       id="clipPath6-5"><path
         d="M 0,1500 H 1500 V 0 H 0 Z"
         transform="translate(-289.20021,-1016)"
         id="path6-5" /></clipPath><clipPath
       clipPathUnits="userSpaceOnUse"
       id="clipPath8-1"><path
         d="M 0,1500 H 1500 V 0 H 0 Z"
         transform="translate(-750.00002,-1149)"
         id="path8-7" /></clipPath><clipPath
       clipPathUnits="userSpaceOnUse"
       id="clipPath10-1"><path
         d="M 0,1500 H 1500 V 0 H 0 Z"
         transform="translate(-1099.2003,-556.79979)"
         id="path10-1" /></clipPath><clipPath
       clipPathUnits="userSpaceOnUse"
       id="clipPath12-5"><path
         d="M 0,1500 H 1500 V 0 H 0 Z"
         transform="translate(-407.70021,-544.90044)"
         id="path12-2" /></clipPath></defs><sodipodi:namedview
     id="namedview1"
     pagecolor="#ffffff"
     bordercolor="#000000"
     borderopacity="0.25"
     inkscape:showpageshadow="2"
     inkscape:pageopacity="0.0"
     inkscape:pagecheckerboard="0"
     inkscape:deskcolor="#d1d1d1"
     showguides="false"
     inkscape:zoom="0.16"
     inkscape:cx="3084.375"
     inkscape:cy="621.875"
     inkscape:window-width="1920"
     inkscape:window-height="1129"
     inkscape:window-x="-3"
     inkscape:window-y="1072"
     inkscape:window-maximized="1"
     inkscape:current-layer="layer-MC1"><inkscape:page
       x="0"
       y="0"
       inkscape:label="1"
       id="page1"
       width="5843.2051"
       height="1730.6155"
       margin="0 62.5 0 55.606659"
       bleed="0" /><sodipodi:guide
       position="476.99522,1148.7675"
       orientation="0,-1"
       id="guide16"
       inkscape:locked="false" /><sodipodi:guide
       position="1049.9027,964.61549"
       orientation="-1,0"
       id="guide17"
       inkscape:locked="false"
       inkscape:label=""
       inkscape:color="rgb(0,134,229)" /></sodipodi:namedview><g
     id="layer-MC1"
     inkscape:groupmode="layer"
     inkscape:label="Warstwa 1"
     transform="translate(49.902724)"><path
       id="path19"
       style="fill:#000000;stroke-width:2.40902;fill-opacity:1"
       d="m 45.99613,1472.6592 c 173.93726,189.1635 514.48397,249.2784 835.50177,257.6826 -56.78655,-30.9685 -112.80869,-83.3362 -153.50137,-127.5911 221.85077,-56.1161 348.13897,-144.2212 348.13897,-144.2212 50.8643,55.3169 174.4636,113.9254 273.0627,135.3514 -66.226,60.8953 -230.2076,131.0101 -310.7634,136.7345 252.2668,-5.3749 471.0836,-36.6079 555.6128,-51.8004 22.216,-82.9606 71.6588,-298.3943 98.1347,-549.3254 -12.4484,79.7937 -96.0457,237.3295 -162.2717,298.2249 -13.0959,-100.0468 -61.151,-228.1189 -112.0152,-283.4357 0,0 98.3687,-118.4687 172.8613,-334.84253 40.6927,44.25486 88.1863,104.46456 114.2919,163.64454 18.5011,-320.59442 -12.892,-664.9785 -186.8292,-854.142 166.0541,548.20908 -199.839,936.26159 -354.2965,1092.09889 -168.2216,140.8685 -585.54447,472.9891 -1117.92677,261.6215 z" /><path
       id="rect6"
       style="fill:#000000;stroke-width:0.8038;fill-opacity:1"
       d="m 560.07922,766.71209 0.001,10e-4 216.23279,-198.82768 -10e-4,-10e-4 z m 216.2341,-198.82624 48.86353,274.75248 -265.09631,-75.9248 166.71383,181.30778 c 0,0 212.51613,-68.33296 337.04173,-67.44329 z m 102.24054,545.17975 292.39964,317.9958 216.2327,-198.8276 -189.1401,-205.6972 c -64.9193,13.917 -215.7437,48.14 -319.49224,86.529 z" /><path
       id="rect15"
       style="fill:#0099ff;stroke-width:0.897001;fill-opacity:1"
       d="m 422.04638,572.31703 c -1.23161,1.13248 -2.45335,2.27068 -3.66384,3.41403 L 578.17282,626.66195 938.1788,295.63372 839.57404,188.3972 Z m -100.0127,162.78432 c -60.87683,227.64596 136.11406,486.18905 522.91772,341.42025 364.6665,-136.48339 422.383,-73.6487 426.6622,-68.0089 -3.6927,-5.5971 -105.5924,-153.11196 -505.93282,-18.20099 -223.92006,75.45909 -362.96131,-85.85359 -303.19175,-230.33073 -45.78595,5.167 -97.71882,-3.96918 -140.45535,-24.87963 z" /><path
       id="path17"
       style="fill:#000000;stroke-width:0.536534;fill-opacity:1"
       d="m 172.02723,802.21153 98.60478,107.23651 v 0 C 243.43687,848.22346 245.04326,780.77825 265.69165,716.08639 Z"
       sodipodi:nodetypes="ccccc" /><text
       xml:space="preserve"
       id="text1"
       style="font-size:200px;line-height:0;text-align:start;writing-mode:lr-tb;direction:ltr;white-space:pre;shape-inside:url(#rect1);fill:#0099ff;fill-opacity:1"
       transform="matrix(3.2095866,0,0,3.2095866,-4836.5786,-61.750339)"><tspan
         x="2085.9648"
         y="313.26172"
         id="tspan4"><tspan
           style="font-family:'Krona One';-inkscape-font-specification:'Krona One'"
           id="tspan3">Shipyard</tspan></tspan></text><text
       xml:space="preserve"
       style="font-style:normal;font-variant:normal;font-weight:normal;font-stretch:normal;font-size:200px;line-height:0;font-family:Raleway;-inkscape-font-specification:Raleway;text-align:start;writing-mode:lr-tb;direction:ltr;text-anchor:start;fill:#000000;fill-opacity:1"
       x="2278.3259"
       y="1275"
       id="text2"><tspan
         sodipodi:role="line"
         id="tspan2"
         x="2278.3259"
         y="1275">where WPWW's projects set sail</tspan></text><path
       id="rect2"
       style="fill:#000000;fill-opacity:1"
       d="M 1897.9996 1213.2129 L 1897.9996 1233.3867 L 2197.0758 1233.3867 L 2197.0758 1213.2129 L 1897.9996 1213.2129 z M 5350.5738 1213.2129 L 5350.5738 1233.3867 L 5652.652 1233.3867 L 5652.652 1213.2129 L 5350.5738 1213.2129 z " /></g><g
     id="layer-MC0-1"
     inkscape:groupmode="layer"
     inkscape:label="Warstwa 1"
     transform="matrix(1.6274902,0,0,1.6274902,2693.6678,-9.5380721e-7)"><path
       id="path1"
       d="m 0,0 v 0 l -362.6,628 c -8.1,-30.6 -12.4,-62.8 -12.4,-96 0,-65.9 17,-127.9 46.9,-181.7 L 0,-218 136,17.6 C 92.6,6.1 47,0 0,0"
       style="fill:#000000;fill-opacity:1;fill-rule:nonzero;stroke:none"
       transform="matrix(0.27344678,-0.25143638,-0.25143638,-0.27344678,-1215.2818,411.32361)"
       clip-path="url(#clipPath2-48)" /><path
       id="path3"
       clip-path="url(#clipPath4-2)"
       style="fill:#000000;fill-opacity:1;fill-rule:nonzero;stroke:none"
       d="M 0.00146776,-3.6584363e-4 C 32.301468,-32.500366 60.399425,-69.100639 83.499425,-109.00064 H 83.399276 L -142.1221,-499.59249 H -16.309806 L 272.19848,-3.6584363e-4 Z"
       transform="matrix(0.27344678,-0.25143638,-0.25143638,-0.27344678,-1340.1632,68.440501)" /><path
       id="path5"
       d="M 0,0 V 0 H 725.1 C 657.3,67.4 563.899,109 460.8,109 h -649.5 l 136,-235.5 C -40.6,-81.7 -22.7,-39.3 0,0"
       style="fill:#000000;fill-opacity:1;fill-rule:nonzero;stroke:none"
       transform="matrix(0.27344678,-0.25143638,-0.25143638,-0.27344678,-1541.9323,308.97496)"
       clip-path="url(#clipPath6-5)" /><path
       id="path7"
       d="m 0,0 v 0 c 165.8,0 308,-101.2 368.3,-245.2 l 50.9,88.2 0.7,0.4 13.3,23.1 C 343.8,12 183.3,109 0,109 -118.7,109 -228,68.3 -314.5,0 Z"
       style="fill:#000000;fill-opacity:1;fill-rule:nonzero;stroke:none"
       transform="matrix(0.27344678,-0.25143638,-0.25143638,-0.27344678,-1449.369,156.74466)"
       clip-path="url(#clipPath8-1)" /><path
       id="path9"
       clip-path="url(#clipPath10-1)"
       style="fill:#000000;fill-opacity:1;fill-rule:nonzero;stroke:none"
       d="M 153.59994,266.10047 39.601937,68.607743 H 143.40741 c 10.05334,39.867257 15.39379,81.605997 15.39379,124.591127 0,24.7 -1.80126,49.1016 -5.20126,72.9016 z m -551.91484,-471.79608 49.11473,-85.10357 13.80111,-23.89994 c 113.46272,3.06209 217.64311,43.31502 300.797461,109.00351 H -340.0382 c -3.04553,-0.0686 -6.09997,-0.10338 -9.16197,-0.10338 -3.06614,0 -6.12169,0.0348 -9.16842,0.10338 z"
       transform="matrix(0.27344678,-0.25143638,-0.25143638,-0.27344678,-1204.9807,230.87828)" /><path
       id="path11"
       d="m 0,0 c -36,59.899 -56.7,130.1 -56.7,205.1 0,91 30.5,174.9 81.7,242 h -101.9 -27.6 c -39,-71.9 -61.2,-154.4 -61.2,-242 0,-214.1 132.4,-397.201 319.8,-472 z"
       style="fill:#000000;fill-opacity:1;fill-rule:nonzero;stroke:none"
       transform="matrix(0.27344678,-0.25143638,-0.25143638,-0.27344678,-1391.0772,408.00037)"
       clip-path="url(#clipPath12-5)" /></g></svg>
