<?xml version="1.0" encoding="UTF-8" standalone="no"?>
<!-- Created with Inkscape (http://www.inkscape.org/) -->

<svg
   version="1.1"
   id="svg1"
   width="5843.2051"
   height="1730.6155"
   viewBox="0 0 5843.2051 1730.6155"
   sodipodi:docname="full_banner.svg"
   inkscape:version="1.4.2 (f4327f4, 2025-05-13)"
   xml:space="preserve"
   xmlns:inkscape="http://www.inkscape.org/namespaces/inkscape"
   xmlns:sodipodi="http://sodipodi.sourceforge.net/DTD/sodipodi-0.dtd"
   xmlns="http://www.w3.org/2000/svg"
   xmlns:svg="http://www.w3.org/2000/svg"><defs
     id="defs1"><rect
       x="2085.9651"
       y="254.66766"
       width="2594.198"
       height="670.10944"
       id="rect1" /><inkscape:path-effect
       effect="mirror_symmetry"
       start_point="1000,0"
       end_point="1000,2000"
       center_point="1000,1000"
       id="path-effect22"
       is_visible="true"
       lpeversion="1.2"
       lpesatellites=""
       mode="vertical"
       discard_orig_path="false"
       fuse_paths="false"
       oposite_fuse="false"
       split_items="false"
       split_open="false"
       link_styles="false" /><inkscape:path-effect
       effect="mirror_symmetry"
       start_point="1000,-230.37742"
       end_point="1000,1769.6226"
       center_point="1000,769.62258"
       id="path-effect5"
       is_visible="true"
       lpeversion="1.2"
       lpesatellites=""
       mode="vertical"
       discard_orig_path="false"
       fuse_paths="false"
       oposite_fuse="false"
       split_items="false"
       split_open="false"
       link_styles="false" /><inkscape:path-effect
       effect="mirror_symmetry"
       start_point="1000,0"
       end_point="1000,2000"
       center_point="1000,1000"
       id="path-effect21"
       is_visible="true"
       lpeversion="1.2"
       lpesatellites=""
       mode="vertical"
       discard_orig_path="false"
       fuse_paths="false"
       oposite_fuse="false"
       split_items="false"
       split_open="false"
       link_styles="false" /><inkscape:path-effect
       effect="mirror_symmetry"
       start_point="1000,1095.1807"
       end_point="1000,1882"
       center_point="1000,1488.5904"
       id="path-effect20"
       is_visible="true"
       lpeversion="1.2"
       lpesatellites=""
       mode="vertical"
       discard_orig_path="false"
       fuse_paths="false"
       oposite_fuse="false"
       split_items="false"
       split_open="false"
       link_styles="false" /><inkscape:path-effect
       effect="mirror_symmetry"
       start_point="-383.67803,623.35022"
       end_point="-383.67803,-876.64981"
       center_point="-383.67803,-126.6498"
       id="path-effect19"
       is_visible="true"
       lpeversion="1.2"
       lpesatellites=""
       mode="vertical"
       discard_orig_path="false"
       fuse_paths="false"
       oposite_fuse="false"
       split_items="false"
       split_open="false"
       link_styles="false" /><inkscape:path-effect
       effect="mirror_symmetry"
       start_point="-383.67803,623.35022"
       end_point="-383.67803,-876.64981"
       center_point="-383.67803,-126.6498"
       id="path-effect18"
       is_visible="false"
       lpeversion="1.2"
       lpesatellites=""
       mode="vertical"
       discard_orig_path="false"
       fuse_paths="false"
       oposite_fuse="false"
       split_items="false"
       split_open="false"
       link_styles="false" /><inkscape:path-effect
       effect="mirror_symmetry"
       start_point="-8396.6778,-329.3584"
       end_point="300.4746,-329.3584"
       center_point="-4048.1016,-329.3584"
       id="path-effect17"
       is_visible="true"
       lpeversion="1.2"
       lpesatellites=""
       mode="free"
       discard_orig_path="false"
       fuse_paths="false"
       oposite_fuse="false"
       split_items="false"
       split_open="false"
       link_styles="false" /><clipPath
       clipPathUnits="userSpaceOnUse"
       id="clipPath2"><path
         d="M 0,1500 H 1500 V 0 H 0 Z"
         transform="translate(-807.35942,-400.21681)"
         id="path2" /></clipPath><clipPath
       clipPathUnits="userSpaceOnUse"
       id="clipPath4"><path
         d="M 0,1500 H 1500 V 0 H 0 Z"
         transform="translate(-1199.5254,-1079.3584)"
         id="path4" /></clipPath><clipPath
       clipPathUnits="userSpaceOnUse"
       id="clipPath6"><path
         d="M 0,1500 H 1500 V 0 H 0 Z"
         transform="translate(-807.35942,-1172.1235)"
         id="path6" /></clipPath><clipPath
       clipPathUnits="userSpaceOnUse"
       id="clipPath8"><path
         d="M 0,1500 H 1500 V 0 H 0 Z"
         transform="translate(-1120.8027,-983.87012)"
         id="path8" /></clipPath><clipPath
       clipPathUnits="userSpaceOnUse"
       id="clipPath10"><path
         d="M 0,1500 H 1500 V 0 H 0 Z"
         transform="translate(-1239.6954,-852.97752)"
         id="path10" /></clipPath><clipPath
       clipPathUnits="userSpaceOnUse"
       id="clipPath12"><path
         d="M 0,1500 H 1500 V 0 H 0 Z"
         id="path12" /></clipPath><clipPath
       clipPathUnits="userSpaceOnUse"
       id="clipPath14"><path
         d="M 0,1500 H 1500 V 0 H 0 Z"
         id="path14" /></clipPath><clipPath
       clipPathUnits="userSpaceOnUse"
       id="clipPath16"><path
         d="M 0,1500 H 1500 V 0 H 0 Z"
         id="path16" /></clipPath><clipPath
       clipPathUnits="userSpaceOnUse"
       id="clipPath4-4"><path
         d="M 0,1500 H 1500 V 0 H 0 Z"
         transform="translate(-1199.5254,-1079.3584)"
         id="path4-8" /></clipPath><clipPath
       clipPathUnits="userSpaceOnUse"
       id="clipPath10-8"><path
         d="M 0,1500 H 1500 V 0 H 0 Z"
         transform="translate(-1239.6954,-852.97752)"
         id="path10-2" /></clipPath><clipPath
       clipPathUnits="userSpaceOnUse"
       id="clipPath2-4"><path
         d="M 0,1500 H 1500 V 0 H 0 Z"
         transform="translate(-807.35942,-400.21681)"
         id="path2-5" /></clipPath><clipPath
       clipPathUnits="userSpaceOnUse"
       id="clipPath4-7"><path
         d="M 0,1500 H 1500 V 0 H 0 Z m -817.07205,0 H -2317.0721 V 0 h 1500.00005 z"
         transform="translate(-1199.5254,-1079.3584)"
         id="path4-6" /></clipPath><inkscape:path-effect
       effect="mirror_symmetry"
       start_point="-408.53603,518.49306"
       end_point="-408.53603,-804.02569"
       center_point="-408.53603,-142.76632"
       id="path-effect18-1"
       is_visible="true"
       lpeversion="1.2"
       lpesatellites=""
       mode="vertical"
       discard_orig_path="false"
       fuse_paths="false"
       oposite_fuse="false"
       split_items="false"
       split_open="false"
       link_styles="false" /><clipPath
       clipPathUnits="userSpaceOnUse"
       id="clipPath2-48"><path
         d="M 0,1500 H 1500 V 0 H 0 Z"
         transform="translate(-750.00002,-218.00003)"
         id="path2-8" /></clipPath><clipPath
       clipPathUnits="userSpaceOnUse"
       id="clipPath4-2"><path
         d="M 0,1500 H 1500 V 0 H 0 Z"
         transform="translate(-1127.2998,-1125)"
         id="path4-4" /></clipPath><clipPath
       clipPathUnits="userSpaceOnUse"
       id="clipPath6-5"><path
         d="M 0,1500 H 1500 V 0 H 0 Z"
         transform="translate(-289.20021,-1016)"
         id="path6-5" /></clipPath><clipPath
       clipPathUnits="userSpaceOnUse"
       id="clipPath8-1"><path
         d="M 0,1500 H 1500 V 0 H 0 Z"
         transform="translate(-750.00002,-1149)"
         id="path8-7" /></clipPath><clipPath
       clipPathUnits="userSpaceOnUse"
       id="clipPath10-1"><path
         d="M 0,1500 H 1500 V 0 H 0 Z"
         transform="translate(-1099.2003,-556.79979)"
         id="path10-1" /></clipPath><clipPath
       clipPathUnits="userSpaceOnUse"
       id="clipPath12-5"><path
         d="M 0,1500 H 1500 V 0 H 0 Z"
         transform="translate(-407.70021,-544.90044)"
         id="path12-2" /></clipPath></defs><sodipodi:namedview
     id="namedview1"
     pagecolor="#ffffff"
     bordercolor="#000000"
     borderopacity="0.25"
     inkscape:showpageshadow="2"
     inkscape:pageopacity="0.0"
     inkscape:pagecheckerboard="0"
     inkscape:deskcolor="#d1d1d1"
     showguides="false"
     inkscape:zoom="0.16"
     inkscape:cx="3081.25"
     inkscape:cy="621.875"
     inkscape:window-width="1920"
     inkscape:window-height="1129"
     inkscape:window-x="-3"
     inkscape:window-y="1072"
     inkscape:window-maximized="1"
     inkscape:current-layer="layer-MC1"><inkscape:page
       x="0"
       y="0"
       inkscape:label="1"
       id="page1"
       width="5843.2051"
       height="1730.6155"
       margin="0 62.5 0 55.606659"
       bleed="0" /><sodipodi:guide
       position="476.99522,1148.7675"
       orientation="0,-1"
       id="guide16"
       inkscape:locked="false" /><sodipodi:guide
       position="1049.9027,964.61549"
       orientation="-1,0"
       id="guide17"
       inkscape:locked="false"
       inkscape:label=""
       inkscape:color="rgb(0,134,229)" /></sodipodi:namedview><g
     id="layer-MC1"
     inkscape:groupmode="layer"
     inkscape:label="Warstwa 1"
     transform="translate(49.902724)"><path
       id="path19"
       style="fill:#000000;stroke-width:2.40902;fill-opacity:1"
       d="m 45.99613,1472.6592 c 173.93726,189.1635 514.48397,249.2784 835.50177,257.6826 -56.78655,-30.9685 -112.80869,-83.3362 -153.50137,-127.5911 221.85077,-56.1161 348.13897,-144.2212 348.13897,-144.2212 50.8643,55.3169 174.4636,113.9254 273.0627,135.3514 -66.226,60.8953 -230.2076,131.0101 -310.7634,136.7345 252.2668,-5.3749 471.0836,-36.6079 555.6128,-51.8004 22.216,-82.9606 71.6588,-298.3943 98.1347,-549.3254 -12.4484,79.7937 -96.0457,237.3295 -162.2717,298.2249 -13.0959,-100.0468 -61.151,-228.1189 -112.0152,-283.4357 0,0 98.3687,-118.4687 172.8613,-334.84253 40.6927,44.25486 88.1863,104.46456 114.2919,163.64454 18.5011,-320.59442 -12.892,-664.9785 -186.8292,-854.142 166.0541,548.20908 -199.839,936.26159 -354.2965,1092.09889 -168.2216,140.8685 -585.54447,472.9891 -1117.92677,261.6215 z" /><path
       id="rect6"
       style="fill:#000000;stroke-width:0.8038;fill-opacity:1"
       d="m 560.07922,766.71209 0.001,10e-4 216.23279,-198.82768 -10e-4,-10e-4 z m 216.2341,-198.82624 48.86353,274.75248 -265.09631,-75.9248 166.71383,181.30778 c 0,0 212.51613,-68.33296 337.04173,-67.44329 z m 102.24054,545.17975 292.39964,317.9958 216.2327,-198.8276 -189.1401,-205.6972 c -64.9193,13.917 -215.7437,48.14 -319.49224,86.529 z" /><path
       id="rect15"
       style="fill:#0099ff;stroke-width:0.897001;fill-opacity:1"
       d="m 422.04638,572.31703 c -1.23161,1.13248 -2.45335,2.27068 -3.66384,3.41403 L 578.17282,626.66195 938.1788,295.63372 839.57404,188.3972 Z m -100.0127,162.78432 c -60.87683,227.64596 136.11406,486.18905 522.91772,341.42025 364.6665,-136.48339 422.383,-73.6487 426.6622,-68.0089 -3.6927,-5.5971 -105.5924,-153.11196 -505.93282,-18.20099 -223.92006,75.45909 -362.96131,-85.85359 -303.19175,-230.33073 -45.78595,5.167 -97.71882,-3.96918 -140.45535,-24.87963 z" /><path
       id="path17"
       style="fill:#000000;stroke-width:0.536534;fill-opacity:1"
       d="m 172.02723,802.21153 98.60478,107.23651 v 0 C 243.43687,848.22346 245.04326,780.77825 265.69165,716.08639 Z"
       sodipodi:nodetypes="ccccc" /><path
       style="font-size:200px;line-height:0;font-family:'Krona One';-inkscape-font-specification:'Krona One';white-space:pre;fill:#0099ff"
       d="m 2114.7734,267.85156 q 8.3008,4.6875 16.7969,8.4961 8.5938,3.71093 17.7735,6.34765 9.1796,2.53906 19.2382,3.90625 10.1563,1.36719 21.5821,1.36719 13.7695,0 23.4375,-1.75781 9.6679,-1.85547 15.7226,-4.98047 6.1524,-3.22266 8.8867,-7.61719 2.8321,-4.39453 2.8321,-9.57031 0,-8.30078 -6.9336,-13.08594 -6.9336,-4.88281 -21.3867,-4.88281 -6.3477,0 -13.3789,0.8789 -7.0313,0.78125 -14.2579,1.75782 -7.1289,0.97656 -14.1601,1.85547 -6.9336,0.78125 -13.086,0.78125 -10.2539,0 -19.7265,-2.63672 -9.375,-2.63672 -16.6992,-7.91016 -7.2266,-5.27344 -11.5235,-13.18359 -4.2968,-7.91016 -4.2968,-18.45703 0,-6.25 1.6601,-12.40235 1.7578,-6.15234 5.4688,-11.71875 3.8086,-5.66406 9.7656,-10.44922 5.957,-4.88281 14.3555,-8.39843 8.496,-3.51563 19.5312,-5.46875 11.1328,-2.05079 25.293,-2.05079 10.2539,0 20.6054,1.17188 10.3516,1.07422 20.1172,3.125 9.8633,2.05078 18.9453,4.98047 9.0821,2.83203 16.8946,6.34765 l -13.5742,25 q -6.4454,-2.83203 -13.8672,-5.17578 -7.4219,-2.4414 -15.5274,-4.19922 -8.1054,-1.75781 -16.7969,-2.73437 -8.5937,-1.07422 -17.5781,-1.07422 -12.7929,0 -21.0937,1.85547 -8.2032,1.85547 -13.086,4.78516 -4.8828,2.83203 -6.8359,6.44531 -1.8555,3.51562 -1.8555,7.03125 0,6.83594 6.1524,11.23047 6.1523,4.29687 18.75,4.29687 5.0781,0 11.6211,-0.68359 6.6406,-0.78125 13.8672,-1.66016 7.3242,-0.8789 14.8437,-1.5625 7.6172,-0.78125 14.7461,-0.78125 13.4766,0 23.8281,3.02735 10.4492,3.02734 17.4805,8.6914 7.0312,5.56641 10.6445,13.57422 3.6133,7.91016 3.6133,17.77344 0,13.18359 -6.1523,23.53515 -6.0547,10.25391 -17.3829,17.38282 -11.2304,7.03125 -27.1484,10.74218 -15.918,3.61329 -35.4492,3.61329 -12.8906,0 -25.1953,-1.66016 -12.3047,-1.5625 -23.6328,-4.49219 -11.2305,-3.02734 -21.4844,-7.1289 -10.1563,-4.19922 -18.8477,-9.17969 z m 189.2579,-116.5039 h 28.9062 v 55.46875 q 9.082,-4.98047 20.2148,-7.91016 11.2305,-2.92969 23.5352,-2.92969 14.2578,0 25.5859,4.19922 11.4258,4.19922 19.336,12.10938 7.9101,7.8125 12.1094,19.04296 4.2968,11.23047 4.2968,25.29297 v 56.64063 h -28.8086 v -55.46875 q 0,-8.20313 -2.6367,-14.94141 -2.6367,-6.83594 -7.7148,-11.71875 -5.0782,-4.88281 -12.4024,-7.51953 -7.2265,-2.73437 -16.4062,-2.73437 -11.0352,0 -20.5078,3.51562 -9.4727,3.51563 -16.6016,8.88672 v 79.98047 h -28.9062 z m 181.5429,30.95703 q -4.2969,0 -7.8125,-1.17188 -3.4179,-1.26953 -5.8594,-3.32031 -2.4414,-2.14844 -3.8085,-4.88281 -1.2696,-2.83203 -1.2696,-5.95703 0,-3.22266 1.2696,-5.95704 1.3671,-2.83203 3.8085,-4.88281 2.4415,-2.05078 5.8594,-3.22265 3.5156,-1.26954 7.8125,-1.26954 4.3946,0 7.8125,1.26954 3.5156,1.17187 5.9571,3.22265 2.4414,2.05078 3.7109,4.88281 1.3672,2.73438 1.3672,5.95704 0,3.125 -1.3672,5.95703 -1.2695,2.73437 -3.7109,4.88281 -2.4415,2.05078 -5.9571,3.32031 -3.4179,1.17188 -7.8125,1.17188 z m -14.4531,15.72265 h 28.9062 v 115.23438 h -28.9062 z m 94.043,162.30469 h -28.9063 V 198.02734 h 28.9063 v 10.83985 q 3.8086,-2.63672 8.9843,-4.98047 5.1758,-2.34375 11.1329,-4.10156 5.957,-1.75782 12.3046,-2.73438 6.3477,-1.07422 12.6954,-1.07422 14.6484,0 26.8554,4.29688 12.3047,4.29687 21.0938,12.10937 8.789,7.8125 13.6718,18.75 4.9805,10.83985 4.9805,24.02344 0,13.76953 -5.1758,24.90234 -5.1757,11.03516 -14.3554,18.94532 -9.0821,7.8125 -21.6797,12.10937 -12.5,4.19922 -27.1485,4.19922 -6.25,0 -12.4023,-0.78125 -6.0547,-0.78125 -11.7188,-2.14844 -5.5664,-1.36719 -10.5468,-3.22265 -4.8828,-1.95313 -8.6914,-4.19922 z m 0,-83.30078 q 4.3945,3.51562 9.2773,5.95703 4.8828,2.44141 9.9609,4.00391 5.0782,1.5625 10.254,2.34375 5.1757,0.68359 10.0585,0.68359 9.961,0 17.6758,-2.63672 7.8125,-2.73437 13.086,-7.42187 5.3711,-4.6875 8.2031,-11.03516 2.832,-6.34766 2.832,-13.76953 0,-6.93359 -2.832,-13.08594 -2.7344,-6.15234 -8.0078,-10.74219 -5.1758,-4.6875 -12.5977,-7.32421 -7.3242,-2.73438 -16.5039,-2.73438 -5.8594,0 -11.7187,1.17188 -5.8594,1.07421 -11.3282,3.125 -5.3711,2.05078 -10.1562,4.98046 -4.6875,2.92969 -8.2031,6.54297 z m 152.7343,50.68359 q 4.4922,2.92969 9.7657,5.17578 5.2734,2.2461 10.9375,3.71094 5.7617,1.46485 11.7187,2.14844 5.957,0.78125 11.8164,0.78125 19.9219,0 30.6641,-8.59375 10.8398,-8.49609 10.8398,-25.58594 v -3.90625 q -3.8086,2.63672 -8.5937,4.88281 -4.6875,2.14844 -10.1563,3.71094 -5.3711,1.5625 -11.4258,2.44141 -5.957,0.78125 -12.1093,0.78125 -13.1836,0 -23.6328,-3.8086 -10.3516,-3.90625 -17.5782,-11.32812 -7.1289,-7.51953 -10.9375,-18.45703 -3.8086,-10.9375 -3.8086,-25 v -56.64063 h 28.8086 v 48.63282 q 0,20.89843 7.9102,30.85937 8.0078,9.86328 25.1953,9.86328 12.1094,0 21.3867,-4.19922 9.375,-4.29687 14.9414,-10.9375 v -74.21875 h 28.9063 v 102.05078 q 0,16.50391 -4.6875,28.61329 -4.6875,12.20703 -13.6719,20.21484 -8.8867,8.00781 -21.875,11.91406 -12.9883,4.00391 -29.4922,4.00391 -16.1133,0 -30.0781,-3.41797 -13.9649,-3.41797 -25.5859,-9.27734 z m 146.5821,-50.78125 q 0,-8.30078 3.6133,-15.13672 3.6132,-6.83593 10.8398,-11.71875 7.2266,-4.98046 17.9687,-7.61718 10.8399,-2.73438 25.1954,-2.73438 10.6445,0 22.3632,1.5625 11.8164,1.5625 24.3164,4.78516 -0.4882,-5.46875 -3.3203,-10.0586 -2.832,-4.6875 -7.9101,-8.00781 -4.9805,-3.41797 -12.1094,-5.27344 -7.0312,-1.85546 -16.0156,-1.85546 -4.8828,0 -10.7422,0.58593 -5.8594,0.58594 -12.1094,1.75782 -6.25,1.17187 -12.4023,2.92968 -6.0547,1.75782 -11.3282,4.19922 l -8.789,-23.73047 q 6.543,-2.34375 13.9648,-4.29687 7.5196,-1.95313 15.3321,-3.32031 7.8125,-1.46485 15.625,-2.2461 7.8125,-0.78125 15.1367,-0.78125 32.3242,0 48.0469,16.50391 15.7226,16.5039 15.7226,50.58594 v 50.19531 h -28.9062 v -10.83985 q -4.4922,2.63672 -9.8633,4.98047 -5.2735,2.34375 -11.5235,4.10157 -6.25,1.75781 -13.4765,2.73437 -7.1289,1.07422 -15.1367,1.07422 -13.4766,0 -23.7305,-2.92969 -10.1563,-2.92969 -16.9922,-8.10547 -6.8359,-5.17578 -10.3516,-12.10937 -3.4179,-7.03125 -3.4179,-15.23438 z m 30.4687,-0.97656 q 0,2.83203 1.4649,5.46875 1.4648,2.53906 4.6875,4.58984 3.2226,1.95313 8.2031,3.22266 5.0781,1.17188 12.207,1.17188 7.6172,0 14.7461,-1.36719 7.1289,-1.36719 13.2813,-3.61328 6.1523,-2.2461 11.1328,-5.17578 4.9804,-2.92969 8.3008,-6.05469 v -5.07813 q -6.6407,-1.85547 -13.1836,-3.125 -6.4453,-1.26953 -12.4024,-1.95312 -5.8594,-0.78125 -11.1328,-1.07422 -5.1758,-0.29297 -9.082,-0.29297 -8.1055,0 -13.4766,1.07422 -5.3711,1.07422 -8.6914,2.92969 -3.3203,1.75781 -4.6875,4.19922 -1.3672,2.4414 -1.3672,5.07812 z m 141.1133,-77.92969 h 28.9063 v 16.60157 q 9.5703,-7.12891 20.2148,-12.30469 10.6445,-5.17578 21.1914,-7.91016 l 8.4961,26.46485 q -16.6992,1.66015 -29.3945,7.51953 -12.5977,5.76172 -20.5078,16.30859 v 68.55469 h -28.9063 z m 91.4063,58.10547 q 0,-13.76953 5.1757,-24.80469 5.1758,-11.13281 14.2578,-18.94531 9.1797,-7.91015 21.6797,-12.10937 12.5977,-4.29688 27.2461,-4.29688 6.25,0 12.3047,0.78125 6.1524,0.78125 11.7188,2.14844 5.664,1.36719 10.5468,3.32031 4.9805,1.85547 8.7891,4.10156 V 151.25 h 28.9063 v 162.01172 h -28.9063 v -10.83985 q -3.8086,2.63672 -8.9844,4.98047 -5.1758,2.34375 -11.1328,4.10157 -5.957,1.75781 -12.4023,2.73437 -6.3477,1.07422 -12.5977,1.07422 -14.6484,0 -26.9531,-4.29688 -12.207,-4.29687 -20.9961,-12.10937 -8.7891,-7.8125 -13.7695,-18.65234 -4.8828,-10.9375 -4.8828,-24.1211 z m 30.371,0 q 0,6.9336 2.7344,13.08594 2.8321,6.15234 8.0078,10.83984 5.2735,4.58985 12.5977,7.32422 7.4219,2.63672 16.6016,2.63672 5.8593,0 11.7187,-1.07422 5.8594,-1.17187 11.2305,-3.22265 5.4687,-2.05079 10.1562,-4.98047 4.7852,-2.92969 8.3008,-6.54297 v -39.94141 q -4.3945,-3.51562 -9.2773,-5.95703 -4.8829,-2.44141 -9.961,-4.00391 -5.0781,-1.5625 -10.2539,-2.24609 -5.1758,-0.78125 -10.0586,-0.78125 -9.9609,0 -17.7734,2.73438 -7.7149,2.63671 -13.086,7.32421 -5.2734,4.6875 -8.1054,11.03516 -2.8321,6.34766 -2.8321,13.76953 z"
       id="text1"
       transform="matrix(3.2095866,0,0,3.2095866,-4836.5786,-61.750339)"
       aria-label="Shipyard" /><path
       d="m 2424.5259,1170.8 h 13.4 l -44.8,104.2 h -11.8 l -21.8,-51.8 -21.6,51.8 h -11.8 l -44.8,-104.2 h 13.2 l 38,90.2 19.2,-47 -17.6,-43 h 12.2 l 13.2,33.8 13.4,-33.8 h 12 l -17.4,43 19.2,47 z m 119,104.2 h -13.6 v -58.2 q 0,-17.6 -6.2,-26.4 -6.2,-9 -17.8,-9 -7.6,0 -15.2,4 -7.4,3.8 -13.2,10.6 -5.6,6.6 -8,15.2 v 63.8 h -13.6 v -146 h 13.6 v 65.4 q 6.2,-11.6 17.2,-18.4 11.2,-7 23.8,-7 9,0 15.2,3.2 6.4,3.2 10.2,9.4 4,6 5.8,14.2 1.8,8 1.8,18.2 z m 74,2 q -11.2,0 -20.8,-4.2 -9.6,-4.4 -16.6,-11.8 -7,-7.6 -11,-17.4 -3.8,-9.8 -3.8,-21 0,-14.6 6.6,-26.8 6.8,-12.2 18.6,-19.4 11.8,-7.4 26.8,-7.4 15.4,0 26.8,7.4 11.6,7.4 18.2,19.6 6.6,12 6.6,26.4 0,1.6 0,3.2 0,1.4 -0.2,2.2 h -89.2 q 1,11.2 6.2,20 5.4,8.6 13.8,13.8 8.6,5 18.6,5 10.2,0 19.2,-5.2 9.2,-5.2 12.8,-13.6 l 11.8,3.2 q -3.2,7.4 -9.8,13.4 -6.6,6 -15.6,9.4 -8.8,3.2 -19,3.2 z m -38.4,-59 h 77 q -0.8,-11.4 -6.2,-20 -5.2,-8.6 -13.8,-13.4 -8.4,-5 -18.6,-5 -10.2,0 -18.6,5 -8.4,4.8 -13.8,13.6 -5.2,8.6 -6,19.8 z m 162.8,-35.2 q -13.6,0.4 -24,7.6 -10.2,7.2 -14.4,19.8 v 64.8 h -13.6 v -104.2 h 12.8 v 25 q 5.4,-11 14.2,-17.8 9,-6.8 19,-7.6 2,-0.2 3.4,-0.2 1.6,0 2.6,0.2 z m 59.9998,94.2 q -11.2,0 -20.8,-4.2 -9.6,-4.4 -16.6,-11.8 -7,-7.6 -11,-17.4 -3.8,-9.8 -3.8,-21 0,-14.6 6.6,-26.8 6.8,-12.2 18.6,-19.4 11.8,-7.4 26.8,-7.4 15.4,0 26.8,7.4 11.6,7.4 18.2,19.6 6.6,12 6.6,26.4 0,1.6 0,3.2 0,1.4 -0.2,2.2 h -89.2 q 1,11.2 6.2,20 5.4,8.6 13.8,13.8 8.6,5 18.6,5 10.2,0 19.2,-5.2 9.2,-5.2 12.8,-13.6 l 11.8,3.2 q -3.2,7.4 -9.8,13.4 -6.6,6 -15.6,9.4 -8.8,3.2 -19,3.2 z m -38.4,-59 h 77 q -0.8,-11.4 -6.2,-20 -5.2,-8.6 -13.8,-13.4 -8.4,-5 -18.6,-5 -10.2,0 -18.6,5 -8.4,4.8 -13.8,13.6 -5.2,8.6 -6,19.8 z m 210.9999,-84 h 13.2 l 20,50.4 20.2,-50.4 h 13.4 l -24.8,60.6 27.2,64.2 51.4,-125.8 h 15.2 l -60.2,142 h -12.4 l -29.8,-70.2 -30,70.2 h -12.2 l -60,-142 h 15 l 51.6,125.8 27,-64.2 z m 155.7999,141 v -142 h 58.8 q 9.2,0 16.8,3.8 7.8,3.8 13.4,10.4 5.6,6.4 8.8,14.4 3.2,7.8 3.2,16 0,11.6 -5.2,22 -5,10.2 -14.2,16.6 -9.2,6.4 -21.6,6.4 h -46 v 52.4 z m 14,-64.8 h 45.4 q 8.4,0 14.6,-4.6 6.2,-4.6 9.6,-12 3.4,-7.4 3.4,-16 0,-8.8 -4,-16.2 -4,-7.4 -10.6,-11.6 -6.4,-4.4 -14.2,-4.4 h -44.2 z m 161.6,-76.2 h 13.2 l 20,50.4 20.2,-50.4 h 13.4 l -24.8,60.6 27.2,64.2 51.4,-125.8 h 15.2 l -60.2,142 h -12.4 l -29.8,-70.2 -30,70.2 h -12.2 l -60,-142 h 15 l 51.6,125.8 27,-64.2 z m 209.1999,0 h 13.2 l 20,50.4 20.2,-50.4 h 13.4 l -24.8,60.6 27.2,64.2 51.4,-125.8 h 15.2 l -60.2,142 h -12.4 l -29.8,-70.2 -30,70.2 h -12.2 l -60,-142 h 15 l 51.6,125.8 27,-64.2 z m 151.7998,36.8 v -39 h 11.8 v 39 z m 73,106.2 q -12.8,0 -23.8,-4.2 -11,-4.2 -19,-12.8 l 5.6,-9.6 q 8.8,8.2 17.6,12 9,3.6 19,3.6 12.2,0 19.8,-4.8 7.6,-5 7.6,-14.2 0,-6.2 -3.8,-9.4 -3.6,-3.4 -10.6,-5.4 -6.8,-2.2 -16.4,-4.6 -10.8,-3 -18.2,-6.2 -7.2,-3.4 -11,-8.4 -3.6,-5.2 -3.6,-13.4 0,-10.2 5,-16.8 5.2,-6.8 14,-10.2 9,-3.6 20,-3.6 12,0 21.2,3.8 9.2,3.8 15,10.6 l -6.6,9.2 q -5.6,-6.4 -13.4,-9.4 -7.6,-3.2 -17,-3.2 -6.4,0 -12.2,1.8 -5.8,1.6 -9.6,5.6 -3.6,3.8 -3.6,10.6 0,5.6 2.8,8.8 2.8,3 8.4,5.2 5.6,2 13.8,4.4 11.8,3.2 20.6,6.6 8.8,3.2 13.6,8.4 4.8,5.2 4.8,14.6 0,14.6 -11,22.8 -11,8.2 -29,8.2 z m 166.5998,0 q -13,0 -23.4,-6.8 -10.2,-6.8 -16.2,-16.8 v 64.2 h -13.6 v -146.8 h 12.2 v 20.2 q 6.2,-9.8 16.6,-15.8 10.4,-6.2 22.2,-6.2 10.8,0 19.8,4.6 9,4.4 15.6,12 6.6,7.6 10.2,17.4 3.8,9.6 3.8,20 0,14.6 -6,27 -5.8,12.2 -16.4,19.6 -10.6,7.4 -24.8,7.4 z m -3.8,-12 q 8.6,0 15.4,-3.4 6.8,-3.6 11.6,-9.6 5,-6 7.6,-13.4 2.6,-7.6 2.6,-15.6 0,-8.4 -3,-16 -2.8,-7.6 -8.2,-13.4 -5.4,-5.8 -12.4,-9.2 -7,-3.4 -15.2,-3.4 -5.2,0 -10.8,2 -5.6,2 -10.8,5.8 -5,3.6 -8.4,8.2 -3.4,4.6 -4.2,9.8 v 32 q 3.2,7.4 8.6,13.4 5.4,5.8 12.4,9.4 7.2,3.4 14.8,3.4 z m 126.0001,-82.2 q -13.6,0.4 -24,7.6 -10.2,7.2 -14.4,19.8 v 64.8 h -13.6 v -104.2 h 12.8 v 25 q 5.4,-11 14.2,-17.8 9,-6.8 19,-7.6 2,-0.2 3.4,-0.2 1.6,0 2.6,0.2 z m 59.3999,94.2 q -11.2,0 -20.8,-4.2 -9.4,-4.4 -16.4,-11.8 -6.8,-7.6 -10.6,-17.2 -3.8,-9.8 -3.8,-20.6 0,-11.2 3.8,-20.8 3.8,-9.8 10.8,-17.2 7,-7.6 16.4,-11.8 9.6,-4.4 20.8,-4.4 11.2,0 20.6,4.4 9.4,4.2 16.4,11.8 7,7.4 10.8,17.2 3.8,9.6 3.8,20.8 0,10.8 -3.8,20.6 -3.8,9.6 -10.8,17.2 -6.8,7.4 -16.4,11.8 -9.4,4.2 -20.8,4.2 z m -37.8,-53.6 q 0,11.6 5,21.2 5.2,9.4 13.8,15 8.6,5.4 19,5.4 10.4,0 19,-5.6 8.6,-5.6 13.8,-15.2 5.2,-9.8 5.2,-21.2 0,-11.6 -5.2,-21.2 -5.2,-9.6 -13.8,-15.2 -8.6,-5.6 -19,-5.6 -10.4,0 -19,5.8 -8.4,5.8 -13.6,15.4 -5.2,9.4 -5.2,21.2 z m 96.7999,87.8 q -6.6,0 -12.4,-1.8 -6,-1.8 -10.4,-6 l 6.6,-9.2 q 3,2.8 7,3.8 3.8,1 7.6,1 4.8,0 9,-2.4 4.2,-2.4 6.8,-6.8 2.8,-4.2 2.8,-9.4 v -109.6 h 13.6 v 108.8 q 0,9.2 -4.4,16.4 -4.4,7.2 -11.4,11.2 -7,4 -14.8,4 z m 17,-162.2 v -20 h 13.6 v 20 z m 88.6,128 q -11.2,0 -20.8,-4.2 -9.6,-4.4 -16.6,-11.8 -7,-7.6 -11,-17.4 -3.8,-9.8 -3.8,-21 0,-14.6 6.6,-26.8 6.8,-12.2 18.6,-19.4 11.8,-7.4 26.8,-7.4 15.4,0 26.8,7.4 11.6,7.4 18.2,19.6 6.6,12 6.6,26.4 0,1.6 0,3.2 0,1.4 -0.2,2.2 h -89.2 q 1,11.2 6.2,20 5.4,8.6 13.8,13.8 8.6,5 18.6,5 10.2,0 19.2,-5.2 9.2,-5.2 12.8,-13.6 l 11.8,3.2 q -3.2,7.4 -9.8,13.4 -6.6,6 -15.6,9.4 -8.8,3.2 -19,3.2 z m -38.4,-59 h 77 q -0.8,-11.4 -6.2,-20 -5.2,-8.6 -13.8,-13.4 -8.4,-5 -18.6,-5 -10.2,0 -18.6,5 -8.4,4.8 -13.8,13.6 -5.2,8.6 -6,19.8 z m 156,59 q -11.4,0 -21,-4.2 -9.4,-4.4 -16.6,-12 -7,-7.6 -11,-17.4 -3.8,-9.8 -3.8,-20.8 0,-14.8 6.6,-27 6.6,-12.2 18.4,-19.4 11.8,-7.2 27.2,-7.2 14.6,0 25.8,6.8 11.2,6.6 16.6,18 l -13.2,4.2 q -4.4,-8 -12.4,-12.4 -7.8,-4.6 -17.4,-4.6 -10.4,0 -19,5.4 -8.6,5.4 -13.8,14.8 -5,9.4 -5,21.4 0,11.8 5.2,21.4 5.2,9.6 13.8,15.4 8.6,5.6 19,5.6 6.8,0 13,-2.4 6.4,-2.4 11,-6.4 4.8,-4.2 6.4,-9 l 13.4,4 q -2.8,7.4 -9.4,13.4 -6.4,5.8 -15.2,9.2 -8.6,3.2 -18.6,3.2 z m 114.5999,-7 q -1.6,0.6 -5,2.2 -3.4,1.6 -8.2,2.8 -4.8,1.2 -10.4,1.2 -5.8,0 -11,-2.2 -5,-2.2 -8,-6.6 -3,-4.6 -3,-11.2 v -74.6 h -14.4 v -10.8 h 14.4 v -35.2 h 13.6 v 35.2 h 24 v 10.8 h -24 v 70.8 q 0.4,5.6 4,8.4 3.8,2.8 8.6,2.8 5.6,0 10.2,-1.8 4.6,-2 5.6,-2.8 z m 51.1998,7 q -12.8,0 -23.8,-4.2 -11,-4.2 -19,-12.8 l 5.6,-9.6 q 8.8,8.2 17.6,12 9,3.6 19,3.6 12.2,0 19.8,-4.8 7.6,-5 7.6,-14.2 0,-6.2 -3.8,-9.4 -3.6,-3.4 -10.6,-5.4 -6.8,-2.2 -16.4,-4.6 -10.8,-3 -18.2,-6.2 -7.2,-3.4 -11,-8.4 -3.6,-5.2 -3.6,-13.4 0,-10.2 5,-16.8 5.2,-6.8 14,-10.2 9,-3.6 20,-3.6 12,0 21.2,3.8 9.2,3.8 15,10.6 l -6.6,9.2 q -5.6,-6.4 -13.4,-9.4 -7.6,-3.2 -17,-3.2 -6.4,0 -12.2,1.8 -5.8,1.6 -9.6,5.6 -3.6,3.8 -3.6,10.6 0,5.6 2.8,8.8 2.8,3 8.4,5.2 5.6,2 13.8,4.4 11.8,3.2 20.6,6.6 8.8,3.2 13.6,8.4 4.8,5.2 4.8,14.6 0,14.6 -11,22.8 -11,8.2 -29,8.2 z m 147.5998,0 q -12.8,0 -23.8,-4.2 -11,-4.2 -19,-12.8 l 5.6,-9.6 q 8.8,8.2 17.6,12 9,3.6 19,3.6 12.2,0 19.8,-4.8 7.6,-5 7.6,-14.2 0,-6.2 -3.8,-9.4 -3.6,-3.4 -10.6,-5.4 -6.8,-2.2 -16.4,-4.6 -10.8,-3 -18.2,-6.2 -7.2,-3.4 -11,-8.4 -3.6,-5.2 -3.6,-13.4 0,-10.2 5,-16.8 5.2,-6.8 14,-10.2 9,-3.6 20,-3.6 12,0 21.2,3.8 9.2,3.8 15,10.6 l -6.6,9.2 q -5.6,-6.4 -13.4,-9.4 -7.6,-3.2 -17,-3.2 -6.4,0 -12.2,1.8 -5.8,1.6 -9.6,5.6 -3.6,3.8 -3.6,10.6 0,5.6 2.8,8.8 2.8,3 8.4,5.2 5.6,2 13.8,4.4 11.8,3.2 20.6,6.6 8.8,3.2 13.6,8.4 4.8,5.2 4.8,14.6 0,14.6 -11,22.8 -11,8.2 -29,8.2 z m 107.3999,0 q -11.2,0 -20.8,-4.2 -9.6,-4.4 -16.6,-11.8 -7,-7.6 -11,-17.4 -3.8,-9.8 -3.8,-21 0,-14.6 6.6,-26.8 6.8,-12.2 18.6,-19.4 11.8,-7.4 26.8,-7.4 15.4,0 26.8,7.4 11.6,7.4 18.2,19.6 6.6,12 6.6,26.4 0,1.6 0,3.2 0,1.4 -0.2,2.2 h -89.2 q 1,11.2 6.2,20 5.4,8.6 13.8,13.8 8.6,5 18.6,5 10.2,0 19.2,-5.2 9.2,-5.2 12.8,-13.6 l 11.8,3.2 q -3.2,7.4 -9.8,13.4 -6.6,6 -15.6,9.4 -8.8,3.2 -19,3.2 z m -38.4,-59 h 77 q -0.8,-11.4 -6.2,-20 -5.2,-8.6 -13.8,-13.4 -8.4,-5 -18.6,-5 -10.2,0 -18.6,5 -8.4,4.8 -13.8,13.6 -5.2,8.6 -6,19.8 z m 159.8004,52 q -1.6,0.6 -5,2.2 -3.4,1.6 -8.2,2.8 -4.8,1.2 -10.4,1.2 -5.8,0 -11,-2.2 -5,-2.2 -8,-6.6 -3,-4.6 -3,-11.2 v -74.6 h -14.4 v -10.8 h 14.4 v -35.2 h 13.6 v 35.2 h 24 v 10.8 h -24 v 70.8 q 0.4,5.6 4,8.4 3.8,2.8 8.6,2.8 5.6,0 10.2,-1.8 4.6,-2 5.6,-2.8 z m 102.1995,7 q -12.8,0 -23.8,-4.2 -11,-4.2 -19,-12.8 l 5.6,-9.6 q 8.8,8.2 17.6,12 9,3.6 19,3.6 12.2,0 19.8,-4.8 7.6,-5 7.6,-14.2 0,-6.2 -3.8,-9.4 -3.6,-3.4 -10.6,-5.4 -6.8,-2.2 -16.4,-4.6 -10.8,-3 -18.2,-6.2 -7.2,-3.4 -11,-8.4 -3.6,-5.2 -3.6,-13.4 0,-10.2 5,-16.8 5.2,-6.8 14,-10.2 9,-3.6 20,-3.6 12,0 21.2,3.8 9.2,3.8 15,10.6 l -6.6,9.2 q -5.6,-6.4 -13.4,-9.4 -7.6,-3.2 -17,-3.2 -6.4,0 -12.2,1.8 -5.8,1.6 -9.6,5.6 -3.6,3.8 -3.6,10.6 0,5.6 2.8,8.8 2.8,3 8.4,5.2 5.6,2 13.8,4.4 11.8,3.2 20.6,6.6 8.8,3.2 13.6,8.4 4.8,5.2 4.8,14.6 0,14.6 -11,22.8 -11,8.2 -29,8.2 z m 54.0001,-32 q 0,-9.8 5.6,-16.8 5.6,-7.2 15.4,-11 10,-4 23,-4 7.6,0 15.8,1.2 8.2,1.2 14.6,3.6 v -8.8 q 0,-13.2 -7.8,-21 -7.8,-7.8 -21.6,-7.8 -8.4,0 -16.6,3.2 -8,3 -16.8,9 l -5.2,-9.6 q 10.2,-7 20,-10.4 9.8,-3.6 20,-3.6 19.2,0 30.4,11 11.2,11 11.2,30.4 v 48.2 q 0,2.8 1.2,4.2 1.2,1.2 3.8,1.4 v 10.8 q -2.2,0.2 -3.8,0.4 -1.6,0.2 -2.4,0 -5,-0.2 -7.6,-3.2 -2.6,-3 -2.8,-6.4 l -0.2,-7.6 q -7,9 -18.2,14 -11.2,4.8 -22.8,4.8 -10,0 -18.2,-4.2 -8,-4.4 -12.6,-11.6 -4.4,-7.4 -4.4,-16.2 z m 69.8,8 q 2.2,-2.8 3.4,-5.4 1.2,-2.6 1.2,-4.6 v -15.2 q -6.8,-2.6 -14.2,-4 -7.2,-1.4 -14.6,-1.4 -14.6,0 -23.6,5.8 -9,5.8 -9,15.8 0,5.8 3,11 3,5 8.8,8.4 5.8,3.2 13.6,3.2 9.8,0 18.2,-3.8 8.6,-3.8 13.2,-9.8 z m 47.6,22 v -104.2 h 13.6 V 1275 Z m 0,-126 v -20 h 13.6 v 20 z m 44.2001,-20 h 13.6 v 122.4 q 0,7.8 2.8,10.2 2.8,2.4 6.8,2.4 3.6,0 7.2,-0.8 3.6,-0.8 6.2,-1.6 l 2.4,11 q -3.8,1.6 -9.4,2.6 -5.4,1 -9.4,1 -9.2,0 -14.8,-5.4 -5.4,-5.4 -5.4,-14.8 z"
       id="text2"
       style="font-size:200px;line-height:0;font-family:Raleway;-inkscape-font-specification:Raleway"
       aria-label="where WPWW's projects set sail" /><path
       id="rect2"
       style="fill:#000000;fill-opacity:1"
       d="M 1897.9996 1213.2129 L 1897.9996 1233.3867 L 2197.0758 1233.3867 L 2197.0758 1213.2129 L 1897.9996 1213.2129 z M 5350.5738 1213.2129 L 5350.5738 1233.3867 L 5652.652 1233.3867 L 5652.652 1213.2129 L 5350.5738 1213.2129 z " /></g><g
     id="layer-MC0-1"
     inkscape:groupmode="layer"
     inkscape:label="Warstwa 1"
     transform="matrix(1.6274902,0,0,1.6274902,2693.6678,-9.5380721e-7)"><path
       id="path1"
       d="m 0,0 v 0 l -362.6,628 c -8.1,-30.6 -12.4,-62.8 -12.4,-96 0,-65.9 17,-127.9 46.9,-181.7 L 0,-218 136,17.6 C 92.6,6.1 47,0 0,0"
       style="fill:#000000;fill-opacity:1;fill-rule:nonzero;stroke:none"
       transform="matrix(0.27344678,-0.25143638,-0.25143638,-0.27344678,-1215.2818,411.32361)"
       clip-path="url(#clipPath2-48)" /><path
       id="path3"
       clip-path="url(#clipPath4-2)"
       style="fill:#000000;fill-opacity:1;fill-rule:nonzero;stroke:none"
       d="M 0.00146776,-3.6584363e-4 C 32.301468,-32.500366 60.399425,-69.100639 83.499425,-109.00064 H 83.399276 L -142.1221,-499.59249 H -16.309806 L 272.19848,-3.6584363e-4 Z"
       transform="matrix(0.27344678,-0.25143638,-0.25143638,-0.27344678,-1340.1632,68.440501)" /><path
       id="path5"
       d="M 0,0 V 0 H 725.1 C 657.3,67.4 563.899,109 460.8,109 h -649.5 l 136,-235.5 C -40.6,-81.7 -22.7,-39.3 0,0"
       style="fill:#000000;fill-opacity:1;fill-rule:nonzero;stroke:none"
       transform="matrix(0.27344678,-0.25143638,-0.25143638,-0.27344678,-1541.9323,308.97496)"
       clip-path="url(#clipPath6-5)" /><path
       id="path7"
       d="m 0,0 v 0 c 165.8,0 308,-101.2 368.3,-245.2 l 50.9,88.2 0.7,0.4 13.3,23.1 C 343.8,12 183.3,109 0,109 -118.7,109 -228,68.3 -314.5,0 Z"
       style="fill:#000000;fill-opacity:1;fill-rule:nonzero;stroke:none"
       transform="matrix(0.27344678,-0.25143638,-0.25143638,-0.27344678,-1449.369,156.74466)"
       clip-path="url(#clipPath8-1)" /><path
       id="path9"
       clip-path="url(#clipPath10-1)"
       style="fill:#000000;fill-opacity:1;fill-rule:nonzero;stroke:none"
       d="M 153.59994,266.10047 39.601937,68.607743 H 143.40741 c 10.05334,39.867257 15.39379,81.605997 15.39379,124.591127 0,24.7 -1.80126,49.1016 -5.20126,72.9016 z m -551.91484,-471.79608 49.11473,-85.10357 13.80111,-23.89994 c 113.46272,3.06209 217.64311,43.31502 300.797461,109.00351 H -340.0382 c -3.04553,-0.0686 -6.09997,-0.10338 -9.16197,-0.10338 -3.06614,0 -6.12169,0.0348 -9.16842,0.10338 z"
       transform="matrix(0.27344678,-0.25143638,-0.25143638,-0.27344678,-1204.9807,230.87828)" /><path
       id="path11"
       d="m 0,0 c -36,59.899 -56.7,130.1 -56.7,205.1 0,91 30.5,174.9 81.7,242 h -101.9 -27.6 c -39,-71.9 -61.2,-154.4 -61.2,-242 0,-214.1 132.4,-397.201 319.8,-472 z"
       style="fill:#000000;fill-opacity:1;fill-rule:nonzero;stroke:none"
       transform="matrix(0.27344678,-0.25143638,-0.25143638,-0.27344678,-1391.0772,408.00037)"
       clip-path="url(#clipPath12-5)" /></g></svg>
